# xmcd CD database file
# Copyright (C) 1993-1996 Ti Kan
#
# Track frame offsets:
# 182
# 12060
# 22680
# 33852
# 47042
# 58735
# 68760
# 80612
# 92372
# 103220
# 117375
# 128947
# 141867
# 153517
# 167247
# 180667
# 193797
# 205750
# 215412
# 226760
# 236815
# 246055
#
# Disc length: 3429 seconds
#
# Revision: 0
# Processed by: cddbd v1.4b41PL1 Copyright (c) Steve Scherf et al.
# Submitted via: inCDius 1.1b5
#
DISCID=270d6316
DTITLE=Moon Mullican - 22 Greatest Hits
DYEAR=1900
DGENRE=
TTITLE0=Farewell
TTITLE1=Ragged But Right
TTITLE2=Magnolia Rag
TTITLE3=Sweeter Than The Flowers
TTITLE4=Jole' Blon
TTITLE5=Wabash Cannonball
TTITLE6=Bottom Of The Glass
TTITLE7=Louisian
TTITLE8=Mona Lisa
TTITLE9=Well Oh Well
TTITLE10=Pipeliner Blues
TTITLE11=Southern Hospitality
TTITLE12=Grandpa Stole My Baby
TTITLE13=Cherokee Boogie
TTITLE14=What Have I Done That Made You Go Away
TTITLE15=Shoot The Moon
TTITLE16=Triflin' Woman Blues
TTITLE17=Good Deal Lucille
TTITLE18=Don't Ever Take My Picture Down
TTITLE19=I'll Sail My Ship Alone
TTITLE20=Make Friends
TTITLE21=Good Times Gonna Roll Again
EXTD=
EXTT0=
EXTT1=
EXTT2=
EXTT3=
EXTT4=
EXTT5=
EXTT6=
EXTT7=
EXTT8=
EXTT9=
EXTT10=
EXTT11=
EXTT12=
EXTT13=
EXTT14=
EXTT15=
EXTT16=
EXTT17=
EXTT18=
EXTT19=
EXTT20=
EXTT21=
PLAYORDER=
